<mxfile host="65bd71144e">
    <diagram id="peWvds4VhWH-41fpVNah" name="Page-1">
        <mxGraphModel dx="274" dy="391" grid="1" gridSize="10" guides="1" tooltips="1" connect="1" arrows="1" fold="1" page="1" pageScale="1" pageWidth="1100" pageHeight="850" math="0" shadow="0">
            <root>
                <mxCell id="0"/>
                <mxCell id="1" parent="0"/>
                <mxCell id="10" style="edgeStyle=none;html=1;exitX=0.5;exitY=1;exitDx=0;exitDy=0;entryX=0.5;entryY=0;entryDx=0;entryDy=0;endArrow=none;endFill=0;fillColor=#f5f5f5;strokeColor=#666666;" parent="1" source="37" target="38" edge="1">
                    <mxGeometry relative="1" as="geometry">
                        <mxPoint x="337.5" y="650" as="sourcePoint"/>
                        <mxPoint x="337.5" y="670" as="targetPoint"/>
                    </mxGeometry>
                </mxCell>
                <mxCell id="14" style="edgeStyle=orthogonalEdgeStyle;html=1;exitX=0.75;exitY=1;exitDx=0;exitDy=0;entryX=0.5;entryY=0;entryDx=0;entryDy=0;endArrow=none;endFill=0;fillColor=#f5f5f5;strokeColor=#666666;" parent="1" source="37" target="40" edge="1">
                    <mxGeometry relative="1" as="geometry">
                        <mxPoint x="390" y="635" as="sourcePoint"/>
                        <mxPoint x="445" y="670" as="targetPoint"/>
                        <Array as="points">
                            <mxPoint x="353" y="640"/>
                            <mxPoint x="390" y="640"/>
                        </Array>
                    </mxGeometry>
                </mxCell>
                <mxCell id="19" style="edgeStyle=orthogonalEdgeStyle;html=1;exitX=0.5;exitY=1;exitDx=0;exitDy=0;entryX=0.5;entryY=0;entryDx=0;entryDy=0;endArrow=none;endFill=0;fillColor=#f5f5f5;strokeColor=#666666;" parent="1" source="35" target="37" edge="1">
                    <mxGeometry relative="1" as="geometry">
                        <mxPoint x="337.5" y="570" as="sourcePoint"/>
                        <mxPoint x="337.5" y="590" as="targetPoint"/>
                    </mxGeometry>
                </mxCell>
                <mxCell id="20" style="edgeStyle=orthogonalEdgeStyle;html=1;exitX=0.75;exitY=1;exitDx=0;exitDy=0;entryX=0.5;entryY=0;entryDx=0;entryDy=0;endArrow=none;endFill=0;fillColor=#f5f5f5;strokeColor=#666666;" parent="1" source="35" target="46" edge="1">
                    <mxGeometry relative="1" as="geometry">
                        <mxPoint x="390" y="555" as="sourcePoint"/>
                        <mxPoint x="550" y="590" as="targetPoint"/>
                        <Array as="points">
                            <mxPoint x="353" y="580"/>
                            <mxPoint x="455" y="580"/>
                        </Array>
                    </mxGeometry>
                </mxCell>
                <mxCell id="21" style="edgeStyle=orthogonalEdgeStyle;html=1;exitX=0.5;exitY=1;exitDx=0;exitDy=0;entryX=0.5;entryY=0;entryDx=0;entryDy=0;endArrow=none;endFill=0;startArrow=none;fillColor=#f5f5f5;strokeColor=#666666;" parent="1" source="34" target="35" edge="1">
                    <mxGeometry relative="1" as="geometry">
                        <mxPoint x="337.5" y="489.9999999999998" as="sourcePoint"/>
                        <mxPoint x="337.5" y="510" as="targetPoint"/>
                    </mxGeometry>
                </mxCell>
                <mxCell id="22" style="edgeStyle=orthogonalEdgeStyle;html=1;exitX=0.75;exitY=1;exitDx=0;exitDy=0;entryX=0.5;entryY=0;entryDx=0;entryDy=0;endArrow=none;endFill=0;fillColor=#f5f5f5;strokeColor=#666666;" parent="1" source="30" target="33" edge="1">
                    <mxGeometry relative="1" as="geometry">
                        <mxPoint x="390" y="460" as="sourcePoint"/>
                        <mxPoint x="455" y="480" as="targetPoint"/>
                        <Array as="points">
                            <mxPoint x="353" y="520"/>
                            <mxPoint x="410" y="520"/>
                        </Array>
                    </mxGeometry>
                </mxCell>
                <mxCell id="15" style="edgeStyle=orthogonalEdgeStyle;html=1;exitX=0.5;exitY=1;exitDx=0;exitDy=0;entryX=0.5;entryY=0;entryDx=0;entryDy=0;endArrow=none;endFill=0;fillColor=#f5f5f5;strokeColor=#666666;" parent="1" source="46" target="47" edge="1">
                    <mxGeometry relative="1" as="geometry">
                        <mxPoint x="550" y="650" as="sourcePoint"/>
                        <mxPoint x="550" y="670" as="targetPoint"/>
                    </mxGeometry>
                </mxCell>
                <mxCell id="17" style="edgeStyle=orthogonalEdgeStyle;html=1;exitX=0.75;exitY=1;exitDx=0;exitDy=0;endArrow=none;endFill=0;entryX=0.5;entryY=0;entryDx=0;entryDy=0;fillColor=#f5f5f5;strokeColor=#666666;" parent="1" source="46" target="18" edge="1">
                    <mxGeometry relative="1" as="geometry">
                        <mxPoint x="650" y="670" as="targetPoint"/>
                        <mxPoint x="600" y="635" as="sourcePoint"/>
                        <Array as="points">
                            <mxPoint x="477" y="640"/>
                            <mxPoint x="515" y="640"/>
                        </Array>
                    </mxGeometry>
                </mxCell>
                <mxCell id="18" value="..." style="text;html=1;strokeColor=none;fillColor=none;align=center;verticalAlign=middle;whiteSpace=wrap;rounded=0;" parent="1" vertex="1">
                    <mxGeometry x="500" y="660" width="30" height="30" as="geometry"/>
                </mxCell>
                <mxCell id="25" style="edgeStyle=orthogonalEdgeStyle;html=1;exitX=0.5;exitY=1;exitDx=0;exitDy=0;entryX=0.5;entryY=0;entryDx=0;entryDy=0;endArrow=none;endFill=0;fillColor=#f5f5f5;strokeColor=#666666;" parent="1" source="24" target="30" edge="1">
                    <mxGeometry relative="1" as="geometry">
                        <mxPoint x="337.5" y="430" as="targetPoint"/>
                    </mxGeometry>
                </mxCell>
                <mxCell id="24" value="..." style="text;html=1;strokeColor=none;fillColor=none;align=center;verticalAlign=middle;whiteSpace=wrap;rounded=0;" parent="1" vertex="1">
                    <mxGeometry x="307.5" y="427.5" width="60" height="30" as="geometry"/>
                </mxCell>
                <mxCell id="30" value="person" style="text;html=1;strokeColor=none;fillColor=none;align=center;verticalAlign=middle;whiteSpace=wrap;rounded=0;fontFamily=Courier New;" parent="1" vertex="1">
                    <mxGeometry x="306.25" y="480" width="62.5" height="30" as="geometry"/>
                </mxCell>
                <mxCell id="31" value="300" style="text;html=1;strokeColor=none;fillColor=default;align=center;verticalAlign=middle;whiteSpace=wrap;rounded=0;fontSize=9;" parent="1" vertex="1">
                    <mxGeometry x="326.87" y="457.5" width="21.25" height="10" as="geometry"/>
                </mxCell>
                <mxCell id="33" value="aka_name" style="text;html=1;strokeColor=none;fillColor=none;align=center;verticalAlign=middle;whiteSpace=wrap;rounded=0;fontFamily=Courier New;" parent="1" vertex="1">
                    <mxGeometry x="380" y="540" width="60" height="30" as="geometry"/>
                </mxCell>
                <mxCell id="35" value="movie" style="text;html=1;strokeColor=none;fillColor=none;align=center;verticalAlign=middle;whiteSpace=wrap;rounded=0;fontFamily=Courier New;" parent="1" vertex="1">
                    <mxGeometry x="307.5" y="540" width="60" height="30" as="geometry"/>
                </mxCell>
                <mxCell id="36" value="30M" style="text;html=1;strokeColor=none;fillColor=default;align=center;verticalAlign=middle;whiteSpace=wrap;rounded=0;fontSize=9;" parent="1" vertex="1">
                    <mxGeometry x="322.49" y="580" width="30" height="10" as="geometry"/>
                </mxCell>
                <mxCell id="37" value="person" style="text;html=1;strokeColor=none;fillColor=none;align=center;verticalAlign=middle;whiteSpace=wrap;rounded=0;fontFamily=Courier New;" parent="1" vertex="1">
                    <mxGeometry x="307.5" y="600" width="60" height="30" as="geometry"/>
                </mxCell>
                <mxCell id="38" value="cast" style="text;html=1;strokeColor=none;fillColor=none;align=center;verticalAlign=middle;whiteSpace=wrap;rounded=0;fontFamily=Courier New;" parent="1" vertex="1">
                    <mxGeometry x="307.5" y="660" width="60" height="30" as="geometry"/>
                </mxCell>
                <mxCell id="39" value="30M" style="text;html=1;strokeColor=none;fillColor=default;align=center;verticalAlign=middle;whiteSpace=wrap;rounded=0;fontSize=9;" parent="1" vertex="1">
                    <mxGeometry x="322.51" y="640" width="30" height="10" as="geometry"/>
                </mxCell>
                <mxCell id="40" value="name" style="text;html=1;strokeColor=none;fillColor=none;align=center;verticalAlign=middle;whiteSpace=wrap;rounded=0;fontFamily=Courier New;" parent="1" vertex="1">
                    <mxGeometry x="360" y="660" width="60" height="30" as="geometry"/>
                </mxCell>
                <mxCell id="45" value="" style="shape=collate;whiteSpace=wrap;html=1;rotation=90;sketch=0;fillColor=#9C9C9C;fontColor=#333333;strokeColor=none;" parent="1" vertex="1">
                    <mxGeometry x="395" y="609.38" width="10" height="11.25" as="geometry"/>
                </mxCell>
                <mxCell id="46" value="... (materialized)" style="text;html=1;strokeColor=none;fillColor=none;align=center;verticalAlign=middle;whiteSpace=wrap;rounded=0;" parent="1" vertex="1">
                    <mxGeometry x="410" y="600" width="90" height="30" as="geometry"/>
                </mxCell>
                <mxCell id="47" value="title" style="text;html=1;strokeColor=none;fillColor=none;align=center;verticalAlign=middle;whiteSpace=wrap;rounded=0;fontFamily=Courier New;" parent="1" vertex="1">
                    <mxGeometry x="425" y="660" width="60" height="30" as="geometry"/>
                </mxCell>
                <mxCell id="49" value="4M" style="text;html=1;strokeColor=none;fillColor=default;align=center;verticalAlign=middle;whiteSpace=wrap;rounded=0;fontSize=9;" parent="1" vertex="1">
                    <mxGeometry x="360" y="630" width="20" height="20" as="geometry"/>
                </mxCell>
                <mxCell id="51" value="0.1M" style="text;html=1;strokeColor=none;fillColor=default;align=center;verticalAlign=middle;whiteSpace=wrap;rounded=0;fontSize=9;" parent="1" vertex="1">
                    <mxGeometry x="445" y="640" width="20" height="10" as="geometry"/>
                </mxCell>
                <mxCell id="52" value="25" style="text;html=1;strokeColor=none;fillColor=default;align=center;verticalAlign=middle;whiteSpace=wrap;rounded=0;fontSize=9;" parent="1" vertex="1">
                    <mxGeometry x="390" y="570" width="20" height="20" as="geometry"/>
                </mxCell>
                <mxCell id="53" value="1M" style="text;html=1;strokeColor=none;fillColor=default;align=center;verticalAlign=middle;whiteSpace=wrap;rounded=0;fontSize=9;" parent="1" vertex="1">
                    <mxGeometry x="367.5" y="510" width="20" height="20" as="geometry"/>
                </mxCell>
                <mxCell id="34" value="300" style="text;html=1;strokeColor=none;fillColor=default;align=center;verticalAlign=middle;whiteSpace=wrap;rounded=0;fontSize=9;" parent="1" vertex="1">
                    <mxGeometry x="324.38" y="520" width="26.25" height="10" as="geometry"/>
                </mxCell>
                <mxCell id="54" value="" style="edgeStyle=orthogonalEdgeStyle;html=1;exitX=0.5;exitY=1;exitDx=0;exitDy=0;entryX=0.5;entryY=0;entryDx=0;entryDy=0;endArrow=none;endFill=0;fillColor=#f5f5f5;strokeColor=#666666;" parent="1" source="30" target="34" edge="1">
                    <mxGeometry relative="1" as="geometry">
                        <mxPoint x="337.5" y="510" as="sourcePoint"/>
                        <mxPoint x="337.5" y="540" as="targetPoint"/>
                    </mxGeometry>
                </mxCell>
                <mxCell id="55" value="" style="shape=collate;whiteSpace=wrap;html=1;rotation=90;sketch=0;fillColor=#9C9C9C;fontColor=#333333;strokeColor=none;" parent="1" vertex="1">
                    <mxGeometry x="297.5" y="609.38" width="10" height="11.25" as="geometry"/>
                </mxCell>
                <mxCell id="56" value="" style="shape=collate;whiteSpace=wrap;html=1;rotation=90;sketch=0;fillColor=#9C9C9C;fontColor=#333333;strokeColor=none;" parent="1" vertex="1">
                    <mxGeometry x="297.5" y="549.37" width="10" height="11.25" as="geometry"/>
                </mxCell>
                <mxCell id="57" value="" style="shape=collate;whiteSpace=wrap;html=1;rotation=90;sketch=0;fillColor=#9C9C9C;fontColor=#333333;strokeColor=none;" parent="1" vertex="1">
                    <mxGeometry x="297.5" y="489.38" width="10" height="11.25" as="geometry"/>
                </mxCell>
            </root>
        </mxGraphModel>
    </diagram>
</mxfile>